<svg version="1.1" viewBox="0.0 0.0 600.0 200.0" fill="none" stroke="none" stroke-linecap="square" stroke-miterlimit="10" xmlns:xlink="http://www.w3.org/1999/xlink" xmlns="http://www.w3.org/2000/svg"><clipPath id="p.0"><path d="m0 0l600.0 0l0 200.0l-600.0 0l0 -200.0z" clip-rule="nonzero"/></clipPath><g clip-path="url(#p.0)"><path fill="#000000" fill-opacity="0.0" d="m0 0l600.0 0l0 200.0l-600.0 0z" fill-rule="evenodd"/><path fill="#000000" fill-opacity="0.0" d="m0 27.732502l0 0c0 -6.039013 4.895588 -10.934601 10.934602 -10.934601l380.5245 0c2.9000244 0 5.6812744 1.1520348 7.7319336 3.2026691c2.0506287 2.0506363 3.2026672 4.831896 3.2026672 7.7319317l0 43.737095c0 6.0390167 -4.8955994 10.934601 -10.934601 10.934601l-380.5245 0c-6.039014 0 -10.934602 -4.895584 -10.934602 -10.934601z" fill-rule="evenodd"/><path stroke="#000000" stroke-width="1.0" stroke-linejoin="round" stroke-linecap="butt" d="m0 27.732502l0 0c0 -6.039013 4.895588 -10.934601 10.934602 -10.934601l380.5245 0c2.9000244 0 5.6812744 1.1520348 7.7319336 3.2026691c2.0506287 2.0506363 3.2026672 4.831896 3.2026672 7.7319317l0 43.737095c0 6.0390167 -4.8955994 10.934601 -10.934601 10.934601l-380.5245 0c-6.039014 0 -10.934602 -4.895584 -10.934602 -10.934601z" fill-rule="evenodd"/><path fill="#000000" d="m33.796387 37.5398l-1.078125 7.75l-1.8593769 0.03125l0.0625 -5.921875l-5.15625 -0.3125l-2.6875 20.53125l4.09375 0.359375l-0.125 1.34375l-11.421874 0l0.09375 -1.34375l3.874999 -0.359375l2.65625 -20.53125l-5.09375 0.3125l-1.781249 5.890625l-1.921875 0l1.28125 -7.75l19.0625 0z" fill-rule="nonzero"/><path fill="#000000" d="m35.961685 72.21168l1.25 -8.656254q-1.859375 0.5468788 -2.859375 0.7500038l-0.140625 -0.9843788q1.015625 -0.21875 2.296875 -0.828125q1.28125 -0.625 2.21875 -1.265625l1.0625 0.25l-1.53125 10.718754l2.390625 0.25l-0.078125 0.875l-6.953125 0l0.078125 -0.875l2.265625 -0.234375z" fill-rule="nonzero"/><path fill="#000000" d="m129.79639 37.5398l-1.078125 7.75l-1.859375 0.03125l0.0625 -5.921875l-5.15625 -0.3125l-2.6875 20.53125l4.09375 0.359375l-0.125 1.34375l-11.421875 0l0.09375 -1.34375l3.875 -0.359375l2.65625 -20.53125l-5.09375 0.3125l-1.78125 5.890625l-1.921875 0l1.28125 -7.75l19.0625 0z" fill-rule="nonzero"/><path fill="#000000" d="m129.05544 72.46168q2.046875 -1.03125 3.828125 -2.484375q1.78125 -1.453125 2.84375 -3.046875q1.078125 -1.609375 1.078125 -3.0156288q0 -1.15625 -0.671875 -1.90625q-0.671875 -0.765625 -1.859375 -0.765625q-1.0625 0 -2.046875 0.5q-0.96875 0.484375 -1.671875 1.109375l-0.5625 -0.96875q0.734375 -0.765625 2.0625 -1.421875q1.34375 -0.65625 3.0 -0.65625q1.46875 0 2.390625 0.625q0.9375 0.625 1.328125 1.5625q0.40625 0.921875 0.40625 1.859375q0 1.4062538 -1.125 2.9843788q-1.125 1.578125 -2.890625 2.984375q-1.765625 1.40625 -3.609375 2.328125l6.328125 -0.421875l1.046875 -1.921875l1.09375 0.359375l-0.90625 3.15625l-9.84375 0l-0.21875 -0.859375z" fill-rule="nonzero"/><path fill="#000000" d="m225.79639 37.5398l-1.078125 7.75l-1.859375 0.03125l0.0625 -5.921875l-5.15625 -0.3125l-2.6875 20.53125l4.09375 0.359375l-0.125 1.34375l-11.421875 0l0.09375 -1.34375l3.875 -0.359375l2.65625 -20.53125l-5.09375 0.3125l-1.78125 5.890625l-1.921875 0l1.28125 -7.75l19.0625 0z" fill-rule="nonzero"/><path fill="#000000" d="m226.72731 76.7273q-0.8125 0 -2.015625 -0.203125l0.234375 -1.171875q0.703125 0.125 1.4375 0.125q1.546875 0 2.84375 -0.640625q1.3125 -0.640625 2.0625 -1.671875q0.765625 -1.03125 0.765625 -2.1875q0 -1.171875 -0.78125 -1.921875q-0.765625 -0.75 -2.359375 -0.6875q-0.234375 0.09375 -0.828125 0.25q-0.59375 0.140625 -0.765625 0.1875l0.171875 -1.171875q2.015625 -0.453125 3.34375 -1.5q1.328125 -1.0625 1.328125 -2.4687538q0 -1.015625 -0.515625 -1.671875q-0.5 -0.65625 -1.609375 -0.65625q-1.03125 0 -1.859375 0.359375q-0.828125 0.34375 -1.671875 0.984375l-0.453125 -0.984375q0.671875 -0.6875 1.9375 -1.265625q1.28125 -0.59375 2.828125 -0.59375q1.703125 0 2.6875 0.875q1.0 0.859375 1.0 2.375q0 1.3437538 -1.140625 2.6093788q-1.140625 1.25 -2.6875 1.859375q1.90625 -0.125 2.828125 0.796875q0.9375 0.921875 0.9375 2.359375q0 1.609375 -1.109375 2.984375q-1.109375 1.390625 -2.90625 2.203125q-1.796875 0.828125 -3.703125 0.828125z" fill-rule="nonzero"/><path fill="#000000" d="m304.2339 61.63355q-0.828125 0 -1.421875 -0.5625q-0.59375 -0.578125 -0.59375 -1.484375q0 -0.984375 0.71875 -1.65625q0.71875 -0.671875 1.6875 -0.671875q0.984375 0 1.515625 0.59375q0.53125 0.59375 0.53125 1.453125q0 1.0625 -0.703125 1.703125q-0.703125 0.625 -1.734375 0.625zm8.453125 0q-0.84375 0 -1.4375 -0.5625q-0.578125 -0.578125 -0.578125 -1.484375q0 -0.984375 0.71875 -1.65625q0.71875 -0.671875 1.640625 -0.671875q1.0 0 1.515625 0.59375q0.53125 0.59375 0.53125 1.453125q0 1.0625 -0.6875 1.703125q-0.6875 0.625 -1.703125 0.625zm8.40625 0q-0.828125 0 -1.421875 -0.5625q-0.59375 -0.578125 -0.59375 -1.484375q0 -0.984375 0.71875 -1.65625q0.71875 -0.671875 1.6875 -0.671875q0.984375 0 1.515625 0.59375q0.53125 0.59375 0.53125 1.453125q0 1.0625 -0.703125 1.703125q-0.703125 0.625 -1.734375 0.625z" fill-rule="nonzero"/><path fill="#000000" fill-opacity="0.0" d="m0 130.13145l0 0c0 -6.0390167 4.895588 -10.934601 10.934602 -10.934601l380.5245 0c2.9000244 0 5.6812744 1.152031 7.7319336 3.2026672c2.0506287 2.0506363 3.2026672 4.831894 3.2026672 7.7319336l0 43.73709c0 6.0390167 -4.8955994 10.934601 -10.934601 10.934601l-380.5245 0c-6.039014 0 -10.934602 -4.895584 -10.934602 -10.934601z" fill-rule="evenodd"/><path stroke="#000000" stroke-width="1.0" stroke-linejoin="round" stroke-linecap="butt" d="m0 130.13145l0 0c0 -6.0390167 4.895588 -10.934601 10.934602 -10.934601l380.5245 0c2.9000244 0 5.6812744 1.152031 7.7319336 3.2026672c2.0506287 2.0506363 3.2026672 4.831894 3.2026672 7.7319336l0 43.73709c0 6.0390167 -4.8955994 10.934601 -10.934601 10.934601l-380.5245 0c-6.039014 0 -10.934602 -4.895584 -10.934602 -10.934601z" fill-rule="evenodd"/><path fill="#000000" d="m25.09326 139.62625q2.75 0 4.609375 1.375q1.859375 1.375 2.734377 3.703125q0.890625 2.3125 0.890625 5.1875q0 3.90625 -1.3750019 7.125q-1.375 3.21875 -3.9375 5.125q-2.5625 1.890625 -6.015625 1.890625q-2.71875 0 -4.59375 -1.328125q-1.874999 -1.328125 -2.796874 -3.640625q-0.90625 -2.3125 -0.90625 -5.265625q0 -3.9375 1.40625 -7.15625q1.406249 -3.234375 3.999999 -5.125q2.59375 -1.890625 5.984375 -1.890625zm-0.40625 1.6875q-2.109375 0 -3.78125 1.609375q-1.65625 1.59375 -2.59375 4.390625q-0.921875 2.78125 -0.921875 6.140625q0 3.921875 1.265625 6.421875q1.265625 2.5 3.71875 2.5q2.140625 0 3.78125 -1.578125q1.65625 -1.59375 2.546875 -4.375q0.90625 -2.78125 0.90625 -6.265625q0 -4.09375 -1.25 -6.46875q-1.25 -2.375 -3.671875 -2.375z" fill-rule="nonzero"/><path fill="#000000" d="m37.625687 174.61063l1.25 -8.65625q-1.859375 0.546875 -2.859375 0.75l-0.140625 -0.984375q1.015625 -0.21875 2.296875 -0.828125q1.28125 -0.625 2.21875 -1.265625l1.0625 0.25l-1.53125 10.71875l2.390625 0.25l-0.078125 0.875l-6.953125 0l0.078125 -0.875l2.265625 -0.234375z" fill-rule="nonzero"/><path fill="#000000" d="m121.09326 139.62625q2.75 0 4.609375 1.375q1.859375 1.375 2.734375 3.703125q0.890625 2.3125 0.890625 5.1875q0 3.90625 -1.375 7.125q-1.375 3.21875 -3.9375 5.125q-2.5625 1.890625 -6.015625 1.890625q-2.71875 0 -4.59375 -1.328125q-1.875 -1.328125 -2.796875 -3.640625q-0.90625 -2.3125 -0.90625 -5.265625q0 -3.9375 1.40625 -7.15625q1.40625 -3.234375 4.0 -5.125q2.59375 -1.890625 5.984375 -1.890625zm-0.40625 1.6875q-2.109375 0 -3.78125 1.609375q-1.65625 1.59375 -2.59375 4.390625q-0.921875 2.78125 -0.921875 6.140625q0 3.921875 1.265625 6.421875q1.265625 2.5 3.71875 2.5q2.140625 0 3.78125 -1.578125q1.65625 -1.59375 2.546875 -4.375q0.90625 -2.78125 0.90625 -6.265625q0 -4.09375 -1.25 -6.46875q-1.25 -2.375 -3.671875 -2.375z" fill-rule="nonzero"/><path fill="#000000" d="m130.71944 174.86063q2.046875 -1.03125 3.828125 -2.484375q1.78125 -1.453125 2.84375 -3.046875q1.078125 -1.609375 1.078125 -3.015625q0 -1.15625 -0.671875 -1.90625q-0.671875 -0.765625 -1.859375 -0.765625q-1.0625 0 -2.046875 0.5q-0.96875 0.484375 -1.671875 1.109375l-0.5625 -0.96875q0.734375 -0.765625 2.0625 -1.421875q1.34375 -0.65625 3.0 -0.65625q1.46875 0 2.390625 0.625q0.9375 0.625 1.328125 1.5625q0.40625 0.921875 0.40625 1.859375q0 1.40625 -1.125 2.984375q-1.125 1.578125 -2.890625 2.984375q-1.765625 1.40625 -3.609375 2.328125l6.328125 -0.421875l1.046875 -1.921875l1.09375 0.359375l-0.90625 3.15625l-9.84375 0l-0.21875 -0.859375z" fill-rule="nonzero"/><path fill="#000000" d="m217.09326 139.62625q2.75 0 4.609375 1.375q1.859375 1.375 2.734375 3.703125q0.890625 2.3125 0.890625 5.1875q0 3.90625 -1.375 7.125q-1.375 3.21875 -3.9375 5.125q-2.5625 1.890625 -6.015625 1.890625q-2.71875 0 -4.59375 -1.328125q-1.875 -1.328125 -2.796875 -3.640625q-0.90625 -2.3125 -0.90625 -5.265625q0 -3.9375 1.40625 -7.15625q1.40625 -3.234375 4.0 -5.125q2.59375 -1.890625 5.984375 -1.890625zm-0.40625 1.6875q-2.109375 0 -3.78125 1.609375q-1.65625 1.59375 -2.59375 4.390625q-0.921875 2.78125 -0.921875 6.140625q0 3.921875 1.265625 6.421875q1.265625 2.5 3.71875 2.5q2.140625 0 3.78125 -1.578125q1.65625 -1.59375 2.546875 -4.375q0.90625 -2.78125 0.90625 -6.265625q0 -4.09375 -1.25 -6.46875q-1.25 -2.375 -3.671875 -2.375z" fill-rule="nonzero"/><path fill="#000000" d="m228.39131 179.12625q-0.8125 0 -2.015625 -0.203125l0.234375 -1.171875q0.703125 0.125 1.4375 0.125q1.546875 0 2.84375 -0.640625q1.3125 -0.640625 2.0625 -1.671875q0.765625 -1.03125 0.765625 -2.1875q0 -1.171875 -0.78125 -1.921875q-0.765625 -0.75 -2.359375 -0.6875q-0.234375 0.09375 -0.828125 0.25q-0.59375 0.140625 -0.765625 0.1875l0.171875 -1.171875q2.015625 -0.453125 3.34375 -1.5q1.328125 -1.0625 1.328125 -2.46875q0 -1.015625 -0.515625 -1.671875q-0.5 -0.65625 -1.609375 -0.65625q-1.03125 0 -1.859375 0.359375q-0.828125 0.34375 -1.671875 0.984375l-0.453125 -0.984375q0.671875 -0.6875 1.9375 -1.265625q1.28125 -0.59375 2.828125 -0.59375q1.703125 0 2.6875 0.875q1.0 0.859375 1.0 2.375q0 1.34375 -1.140625 2.609375q-1.140625 1.25 -2.6875 1.859375q1.90625 -0.125 2.828125 0.796875q0.9375 0.921875 0.9375 2.359375q0 1.609375 -1.109375 2.984375q-1.109375 1.390625 -2.90625 2.203125q-1.796875 0.828125 -3.703125 0.828125z" fill-rule="nonzero"/><path fill="#000000" d="m304.2339 164.0325q-0.828125 0 -1.421875 -0.5625q-0.59375 -0.578125 -0.59375 -1.484375q0 -0.984375 0.71875 -1.65625q0.71875 -0.671875 1.6875 -0.671875q0.984375 0 1.515625 0.59375q0.53125 0.59375 0.53125 1.453125q0 1.0625 -0.703125 1.703125q-0.703125 0.625 -1.734375 0.625zm8.453125 0q-0.84375 0 -1.4375 -0.5625q-0.578125 -0.578125 -0.578125 -1.484375q0 -0.984375 0.71875 -1.65625q0.71875 -0.671875 1.640625 -0.671875q1.0 0 1.515625 0.59375q0.53125 0.59375 0.53125 1.453125q0 1.0625 -0.6875 1.703125q-0.6875 0.625 -1.703125 0.625zm8.40625 0q-0.828125 0 -1.421875 -0.5625q-0.59375 -0.578125 -0.59375 -1.484375q0 -0.984375 0.71875 -1.65625q0.71875 -0.671875 1.6875 -0.671875q0.984375 0 1.515625 0.59375q0.53125 0.59375 0.53125 1.453125q0 1.0625 -0.703125 1.703125q-0.703125 0.625 -1.734375 0.625z" fill-rule="nonzero"/><path fill="#000000" fill-opacity="0.0" d="m119.2231 72.18982l-0.06299591 63.622055" fill-rule="evenodd"/><path stroke="#000000" stroke-width="2.0" stroke-linejoin="round" stroke-linecap="butt" d="m119.2231 72.18982l-0.06299591 63.622055" fill-rule="evenodd"/><path fill="#000000" fill-opacity="0.0" d="m24.020998 72.18982l-0.062992096 63.622055" fill-rule="evenodd"/><path stroke="#000000" stroke-width="2.0" stroke-linejoin="round" stroke-linecap="butt" d="m24.020998 72.18982l-0.062992096 63.622055" fill-rule="evenodd"/><path fill="#000000" fill-opacity="0.0" d="m214.4252 72.18982l-0.06300354 63.622055" fill-rule="evenodd"/><path stroke="#000000" stroke-width="2.0" stroke-linejoin="round" stroke-linecap="butt" d="m214.4252 72.18982l-0.06300354 63.622055" fill-rule="evenodd"/><path fill="#000000" fill-opacity="0.0" d="m144.81364 79.19948l63.181107 56.7874" fill-rule="evenodd"/><path stroke="#000000" stroke-width="2.0" stroke-linejoin="round" stroke-linecap="butt" d="m144.81364 79.19948l63.181107 56.7874" fill-rule="evenodd"/></g></svg>